<?xml version="1.0" encoding="utf-8"?>
<!-- Generator: Adobe Illustrator 16.0.0, SVG Export Plug-In . SVG Version: 6.00 Build 0)  -->
<!DOCTYPE svg PUBLIC "-//W3C//DTD SVG 1.1//EN" "http://www.w3.org/Graphics/SVG/1.1/DTD/svg11.dtd">
<svg version="1.1" xmlns="http://www.w3.org/2000/svg" xmlns:xlink="http://www.w3.org/1999/xlink" x="0px" y="0px" width="800px"
	 height="800px" viewBox="0 0 800 800" enable-background="new 0 0 800 800" xml:space="preserve">
<g id="Layer_1">
	<path fill="#CC0000" d="M800,401c0,202.02-149.78,369.08-344.35,396.16c-0.04,0.01-0.091,0.01-0.131,0.02
		c2.181-0.63,4.351-1.29,6.511-1.96c38.55-12.02,56.42-37.47,61.06-69.75c0.101-0.6,0.18-1.2,0.25-1.8
		c0.08-0.61,0.15-1.21,0.22-1.82c0.881-7.88,1.011-16.14,0.5-24.689c-0.04-0.66-0.079-1.32-0.13-1.98c-0.04-0.66-0.186-1.33-0.244-2
		c-0.16-1.989-0.686-4-0.686-6.02v-0.04c0-1.99-0.385-4-0.686-6.021c-0.01-0.05,0.038-0.09,0.027-0.13
		c-0.09-0.67-0.155-1.34-0.275-2.01c-0.09-0.69-0.188-1.37-0.309-2.06c-0.22-1.381-0.454-2.771-0.704-4.16
		c-0.109-0.69-0.236-1.391-0.377-2.08C500.057,560.96,399.739,422.29,404.998,419c0.42-0.26,1.001-0.38,1.741-0.38
		c13.46,0.08,78.11,42.77,102.761,77.38c24.38,34.22,56.66,42.95,73.78,49.26c1.149,0.42,2.22,0.83,3.22,1.24c16,6.5,19,71,29.5,0
		s10-129-71.5-187s-48.5-87-44.5-100s13-126-106-126.5S236.5,251,236.5,251c-15.44,32.5,13,204.5,30,267S237,553.5,222,546.5
		c-2.11-0.99-6.04-2.06-11.46-3.12c-0.68-0.13-1.38-0.26-2.1-0.39c-1.14-0.21-2.34-0.42-3.6-0.62c-0.73-0.12-1.48-0.24-2.24-0.36
		c-0.89-0.13-1.8-0.27-2.74-0.41c-0.76-0.1-1.53-0.21-2.32-0.31c-0.12-0.021-0.24-0.04-0.37-0.05c-1.71-0.24-3.5-0.46-5.35-0.681
		c-0.12-0.01-0.23-0.029-0.35-0.04c-2.37-0.279-4.84-0.55-7.41-0.8c-0.12-0.01-0.24-0.02-0.36-0.04c-0.97-0.09-1.95-0.189-2.94-0.27
		c-0.71-0.07-1.42-0.13-2.15-0.19c-2.04-0.189-4.14-0.359-6.29-0.51c-0.24-0.02-0.49-0.04-0.73-0.05
		c-39.56-2.88-95.23-2.36-143.8,9.12C9.85,502.34,0,452.82,0,401C0,180.09,179.09,1,400,1S800,180.09,800,401z"/>
</g>
<g id="Layer_2">
	<g id="Layer_3">
		<path fill="#CC0000" d="M515.657,648.813c-0.051-0.187-0.104-0.373-0.153-0.56C515.554,648.44,515.606,648.627,515.657,648.813z"
			/>
		<path fill="#CC0000" d="M516.356,651.479c-0.23-0.888-0.461-1.775-0.699-2.665C515.896,649.703,516.127,650.591,516.356,651.479z"
			/>
		<path fill="#CC0000" d="M516.871,653.486c-0.169-0.669-0.341-1.338-0.515-2.008C516.53,652.148,516.702,652.817,516.871,653.486z"
			/>
		<path fill="#CC0000" d="M497.21,595.21c0.68,1.63,1.33,3.25,1.97,4.88c-0.02-0.05-0.04-0.1-0.069-0.16
			C498.49,598.36,497.85,596.78,497.21,595.21z"/>
		<path fill="#CC0000" d="M499.85,601.77c0.44,1.101,0.87,2.19,1.29,3.29c-0.159-0.409-0.319-0.81-0.479-1.21
			C500.4,603.16,500.12,602.46,499.85,601.77z"/>
		<path fill="#CC0000" d="M502.12,607.61c0.04,0.069,0.06,0.14,0.09,0.22c-0.02-0.05-0.04-0.1-0.07-0.15
			C502.13,607.66,502.12,607.63,502.12,607.61z"/>
		<path fill="#CC0000" d="M507.57,622.59c0.22,0.61,0.42,1.22,0.63,1.82c-0.19-0.54-0.38-1.09-0.57-1.641
			C507.61,622.71,507.59,622.65,507.57,622.59z"/>
		<path fill="#CC0000" d="M513.49,641.11c-0.08-0.29-0.17-0.591-0.271-0.88c-0.239-0.86-0.5-1.73-0.77-2.601
			c0.03,0.07,0.05,0.14,0.069,0.22C512.85,638.94,513.17,640.03,513.49,641.11z"/>
		<path fill="#CC0000" d="M515.504,648.254c-0.58-2.147-1.185-4.301-1.813-6.459C514.318,643.953,514.924,646.106,515.504,648.254z"
			/>
		<path fill="#CC0000" d="M513.691,641.795c-0.066-0.228-0.132-0.454-0.198-0.682C513.56,641.341,513.625,641.567,513.691,641.795z"
			/>
		<path fill="#CC0000" d="M519.791,666.181c-0.109-0.529-0.221-1.06-0.334-1.59C519.57,665.121,519.682,665.651,519.791,666.181z"/>
		<path fill="#CC0000" d="M520.68,670.66c-0.279-1.487-0.58-2.982-0.889-4.479C520.1,667.679,520.399,669.173,520.68,670.66z"/>
		<path fill="#CC0000" d="M519.457,664.591c-0.219-1.032-0.446-2.067-0.678-3.104C519.012,662.524,519.238,663.559,519.457,664.591z
			"/>
		<path fill="#CC0000" d="M517.459,655.841c-0.191-0.783-0.39-1.569-0.588-2.354C517.069,654.271,517.268,655.058,517.459,655.841z"
			/>
		<path fill="#CC0000" d="M518.414,659.857c-0.307-1.335-0.627-2.675-0.955-4.017C517.788,657.183,518.107,658.522,518.414,659.857z
			"/>
		<path fill="#CC0000" d="M518.779,661.487c-0.122-0.543-0.239-1.085-0.365-1.63C518.54,660.402,518.657,660.944,518.779,661.487z"
			/>
		<path fill="#FFD600" d="M616,546.5c-10.5,71-13.5,6.5-29.5,0c-1-0.41-2.07-0.82-3.22-1.24c-17.12-6.29-49.4-14.87-73.78-49.09
			C485.18,462.02,421.91,420,407.3,419c0,0,0,0-0.01,0c-0.05-0.04-0.24-0.17-0.55-0.38c-0.74,0-1.32,0.12-1.74,0.38
			c-4.1,2.56,55.76,87.12,92.21,176.21c-0.36-0.87-0.72-1.75-1.09-2.62c1.02,2.44,2.02,4.891,2.99,7.34
			c0.029,0.061,0.05,0.11,0.069,0.16c0.021,0.061,0.04,0.12,0.07,0.17c0.47,1.2,0.94,2.391,1.41,3.59
			c0.479,1.221,0.95,2.44,1.42,3.66c0.01,0.03,0.02,0.07,0.04,0.101c0,0.02,0.01,0.05,0.02,0.069c0.091,0.221,0.17,0.44,0.261,0.66
			c0.29,0.79,0.59,1.58,0.89,2.37c0.18,0.49,0.37,0.97,0.55,1.46c0.36,0.99,0.72,1.98,1.08,2.96c0.05,0.14,0.1,0.271,0.15,0.4
			c0.319,0.899,0.64,1.79,0.96,2.68c0.08,0.23,0.16,0.46,0.239,0.68c0.44,1.24,0.87,2.471,1.301,3.7c0.02,0.061,0.04,0.12,0.06,0.18
			c0.23,0.671,0.46,1.341,0.69,2c0.18,0.54,0.37,1.091,0.55,1.631c0.16,0.47,0.31,0.949,0.47,1.42c0.2,0.59,0.391,1.18,0.58,1.77
			c0.19,0.58,0.38,1.15,0.561,1.73c0.14,0.439,0.279,0.88,0.42,1.31c0.04,0.11,0.069,0.22,0.1,0.33c0.28,0.87,0.56,1.74,0.82,2.61
			c0.22,0.68,0.43,1.37,0.63,2.06c0.27,0.87,0.53,1.74,0.77,2.601c0.101,0.289,0.19,0.59,0.271,0.88c2.93,10,5.37,19.89,7.189,29.55
			c0.13,0.689,0.261,1.39,0.38,2.08c0.25,1.39,0.49,2.779,0.71,4.16c0.11,0.689,0.221,1.38,0.32,2.06c0.11,0.67,0.21,1.34,0.3,2.01
			c0.011,0.04-0.09,0.08-0.08,0.13c0.301,2.021,0.69,4.03,0.69,6.021v0.04c0,2.02,0.52,4.03,0.69,6.02c0.04,0.67,0.14,1.33,0.189,2
			c0.05,0.66,0.12,1.32,0.16,1.98c0.51,8.55,0.39,16.81-0.49,24.689c-0.069,0.61-0.14,1.21-0.22,1.82c-0.07,0.6-0.14,1.2-0.24,1.8
			c-4.62,32.3-22.49,57.771-61.06,69.79c-2.12,0.66-4.24,1.28-6.38,1.9c-0.04,0.01-0.091,0.03-0.131,0.04
			c-18.14,2.52-36.68,3.81-55.52,3.81c-169.09,0-313.68-104.93-372.21-253.22c48.57-11.48,104.23-12.01,143.8-9.13
			c0.24,0.01,0.49,0.03,0.73,0.05c2.15,0.16,4.25,0.33,6.29,0.51c0.73,0.061,1.44,0.12,2.15,0.19c1,0.09,1.98,0.18,2.94,0.27
			c0.12,0.021,0.24,0.03,0.36,0.04c2.57,0.261,5.04,0.521,7.41,0.8c0.12,0.011,0.23,0.03,0.35,0.04c1.85,0.221,3.64,0.45,5.35,0.681
			c0.13,0.01,0.25,0.029,0.37,0.05c0.79,0.1,1.56,0.21,2.32,0.31c0.94,0.141,1.85,0.28,2.74,0.41c0.77,0.12,1.51,0.24,2.24,0.36
			c1.26,0.2,2.46,0.41,3.6,0.62c0.73,0.13,1.43,0.26,2.1,0.39c5.42,1.061,9.35,2.13,11.46,3.12c15,7,61.5,34,44.5-28.5
			s-45.44-234.5-30-267c0,0,38.5-118.5,157.5-118s110,113.5,106,126.5s-37,42,44.5,100S626.5,475.5,616,546.5z"/>
		<path fill="#FFD600" d="M513.22,640.23c-0.239-0.86-0.5-1.73-0.77-2.601c0.03,0.07,0.05,0.14,0.069,0.22
			C512.76,638.64,513,639.44,513.22,640.23z"/>
		<path fill="#CC0000" d="M430.64,234.708c6.958-8.923,22.801-8.307,35.388,1.38c12.588,9.689,17.151,24.777,10.193,33.704
			c-6.957,8.922-22.801,8.307-35.389-1.381C428.245,258.722,423.684,243.634,430.64,234.708z"/>
	</g>
</g>
</svg>
